<?xml version="1.0" standalone="no"?>
<!DOCTYPE svg PUBLIC "-//W3C//DTD SVG 20010904//EN"
 "http://www.w3.org/TR/2001/REC-SVG-20010904/DTD/svg10.dtd">
<svg version="1.0" xmlns="http://www.w3.org/2000/svg"
 width="512.000000pt" height="512.000000pt" viewBox="0 0 512.000000 512.000000"
 preserveAspectRatio="xMidYMid meet">
<metadata>
Created by potrace 1.11, written by Peter Selinger 2001-2013
</metadata>
<g transform="translate(0.000000,512.000000) scale(0.100000,-0.100000)"
fill="#000000" stroke="none">
<path d="M0 3784 c0 -901 3 -1333 10 -1329 6 4 17 23 25 42 9 20 40 73 70 117
209 310 574 522 1035 601 145 25 217 30 445 29 187 -1 267 -5 370 -19 67 -9
131 -18 150 -21 11 -2 45 -8 75 -14 30 -6 69 -13 85 -16 17 -3 48 -10 70 -16
22 -5 49 -12 60 -14 11 -1 40 -8 65 -14 33 -8 56 -8 95 1 27 7 57 14 65 15 12
1 77 17 160 39 18 4 145 33 180 41 14 3 54 12 90 20 36 9 76 18 90 20 13 3 56
12 95 20 74 16 97 21 131 28 12 2 64 14 115 25 52 11 110 23 129 26 19 3 64
12 100 20 36 8 78 17 94 19 16 3 52 10 80 15 28 6 62 12 76 15 14 2 65 12 113
21 49 9 101 18 115 20 15 2 27 4 27 5 0 1 14 4 30 6 17 3 66 12 110 20 44 8
94 17 110 19 17 2 46 6 65 9 88 16 148 26 185 31 22 4 54 9 70 12 17 3 41 6
55 8 14 2 54 8 90 14 36 6 83 13 105 16 22 3 50 8 63 10 l22 5 0 745 0 745
-2560 0 -2560 0 0 -1336z m1814 1155 c83 -23 183 -50 221 -59 49 -12 69 -22
66 -31 -2 -8 -9 -39 -16 -69 -66 -276 136 -616 470 -791 221 -115 433 -120
648 -13 73 36 127 71 127 83 0 4 -119 127 -264 275 -301 305 -295 279 -56 229
41 -8 86 -17 100 -20 14 -2 115 -22 225 -45 110 -22 216 -42 236 -45 l36 -5
13 61 c7 33 13 76 14 96 1 40 -9 38 126 15 30 -5 71 -12 90 -15 19 -3 42 -8
50 -10 8 -2 33 -6 55 -10 49 -7 151 -23 185 -30 22 -4 129 -21 185 -30 44 -7
100 -17 102 -18 4 -5 -58 -172 -85 -226 -70 -139 -193 -291 -307 -378 -113
-86 -276 -167 -400 -199 -16 -4 -37 -9 -45 -11 -8 -2 -31 -6 -50 -8 -19 -3
-46 -7 -60 -10 -27 -6 -281 -6 -365 -1 -46 3 -154 15 -179 21 -6 1 -29 5 -51
9 -107 20 -290 70 -350 95 -11 5 -36 15 -55 22 -68 24 -233 110 -319 165 -281
183 -462 428 -512 695 -21 118 -17 299 7 299 4 0 74 -19 158 -41z"/>
<path d="M1588 2935 c-2 -2 -39 -6 -83 -9 -92 -7 -130 -12 -201 -26 -28 -6
-62 -13 -76 -15 -57 -11 -238 -79 -322 -123 -433 -223 -639 -670 -515 -1117
29 -104 28 -101 77 -205 32 -69 105 -186 149 -240 166 -205 349 -351 616 -494
49 -26 91 -46 93 -43 2 2 -5 12 -15 23 -34 37 -159 209 -226 313 -123 190
-234 424 -271 576 -27 106 -29 128 -28 255 0 109 4 135 26 199 15 40 39 92 55
115 42 62 142 157 207 195 99 59 288 127 406 147 14 2 34 6 46 9 235 53 817
52 1244 -2 19 -2 53 -6 75 -8 46 -4 102 -12 195 -25 36 -5 85 -12 110 -16 25
-3 65 -9 90 -14 25 -4 52 -8 60 -8 8 -1 35 -5 60 -11 25 -5 65 -12 90 -16 25
-3 62 -10 83 -15 20 -4 37 -6 37 -4 0 2 -71 39 -157 82 -228 113 -452 207
-713 300 -8 3 -20 6 -26 7 -6 2 -48 14 -95 28 -129 39 -295 80 -374 92 -16 3
-40 7 -52 9 -11 3 -43 8 -70 12 -26 3 -57 8 -68 10 -58 11 -419 27 -427 19z"/>
<path d="M1768 2175 c-1 -2 -55 -5 -118 -8 -120 -5 -209 -19 -261 -41 -29 -12
-27 -13 103 -55 193 -63 419 -163 590 -260 78 -45 79 -46 93 -120 24 -128 93
-344 157 -494 219 -514 569 -852 1062 -1026 104 -37 225 -70 280 -77 22 -3 43
-7 48 -10 17 -11 238 -39 388 -50 65 -4 475 -4 540 1 25 2 83 6 130 10 47 3
99 7 115 10 17 2 62 7 100 11 39 3 77 8 85 9 8 2 21 4 28 4 9 1 12 73 12 325
l0 325 -160 266 c-88 146 -160 268 -160 269 0 2 30 2 68 0 37 -1 67 -4 67 -4
0 -1 20 -3 45 -5 25 -1 65 -4 90 -6 l45 -4 3 251 c2 233 1 250 -15 250 -21 1
-135 13 -178 19 -16 2 -52 7 -80 10 -27 3 -63 8 -80 10 -16 3 -48 7 -70 9 -22
3 -76 10 -120 15 -44 6 -100 14 -125 17 -52 6 -78 10 -140 19 -25 4 -56 8 -70
10 -14 2 -45 6 -70 10 -25 4 -58 9 -75 11 -16 2 -41 6 -55 9 -14 2 -47 7 -74
10 -27 3 -59 7 -70 10 -12 2 -41 7 -66 10 -25 3 -56 7 -70 10 -14 2 -74 11
-135 20 -60 8 -135 20 -165 25 -30 5 -77 12 -105 16 -27 3 -59 8 -70 10 -11 2
-38 6 -60 9 -22 3 -51 7 -65 10 -14 3 -45 7 -70 10 -25 3 -58 8 -75 12 -16 4
-39 7 -50 8 -11 1 -56 8 -100 14 -87 13 -131 19 -185 27 -19 2 -48 6 -65 9
-16 2 -52 7 -80 10 -27 3 -65 8 -83 11 -40 5 -102 12 -162 18 -25 3 -72 8
-105 11 -33 3 -78 8 -100 10 -22 2 -96 7 -165 10 -69 4 -130 8 -137 10 -6 2
-13 2 -15 0z m1290 -565 c64 -23 180 -59 257 -81 77 -21 156 -44 175 -49 41
-12 161 -39 235 -54 11 -2 31 -7 45 -10 14 -3 37 -8 53 -10 15 -3 35 -7 45
-10 9 -2 39 -7 66 -11 27 -3 56 -9 63 -14 12 -6 -139 -139 -470 -411 -17 -14
-63 -52 -101 -85 -161 -136 -185 -155 -198 -150 -16 6 -109 152 -154 240 -34
67 -82 189 -87 220 -1 11 -6 25 -9 31 -4 6 -10 26 -13 44 -3 18 -8 36 -10 40
-2 3 -6 26 -9 51 -3 24 -9 58 -12 74 -9 51 -12 225 -2 225 4 0 61 -18 126 -40z
m1677 -801 c169 -281 305 -512 303 -514 -1 -2 -23 -6 -48 -10 -24 -4 -47 -8
-50 -10 -41 -25 -589 -27 -710 -1 -8 1 -37 6 -65 10 -74 12 -246 54 -336 82
-119 37 -368 142 -369 155 0 4 180 159 250 216 8 6 51 42 95 79 44 37 102 85
129 108 83 69 140 117 166 140 216 183 308 255 327 256 1 0 140 -230 308 -511z"/>
</g>
</svg>
